<svg xmlns="http://www.w3.org/2000/svg" width="375" viewBox="0 0 375 375" height="375" version="1.0"><defs><clipPath id="a"><path d="M 125.929688 79.296875 L 230 79.296875 L 230 217 L 125.929688 217 Z M 125.929688 79.296875"/></clipPath><clipPath id="b"><path d="M 128 197 L 248.929688 197 L 248.929688 228.546875 L 128 228.546875 Z M 128 197"/></clipPath></defs><path fill="#FFF" d="M-37.5 -37.5H412.5V412.5H-37.5z"/><path fill="#FFF" d="M-37.5 -37.5H412.5V412.5H-37.5z"/><path d="M-37.5 -37.5H412.5V412.5H-37.5z"/><g clip-path="url(#a)"><path fill="#FFF" d="M 131.78125 206.316406 C 133.929688 201.878906 135.785156 195.996094 136.789062 190.636719 C 137.03125 189.355469 136.527344 188.070312 135.488281 187.308594 C 134.3125 186.40625 132.613281 185.382812 130.746094 185.089844 C 130.746094 185.089844 133.152344 183.769531 136.164062 185.054688 C 131.351562 181.636719 132.734375 156.886719 141.652344 141.398438 C 141.617188 142.714844 141.601562 143.980469 141.566406 145.300781 C 143.835938 137.964844 148.769531 131.40625 155.300781 127.019531 C 152.355469 131.597656 150.746094 136.976562 150.691406 142.386719 C 152.09375 136.054688 154.78125 129.792969 159.332031 125.042969 C 169.984375 113.925781 188.078125 113.003906 200.234375 103.484375 C 200.027344 104.785156 199.128906 110.699219 198.917969 112 C 201.238281 105.042969 212.183594 99.617188 216.84375 93.855469 C 216.757812 95.3125 216.652344 96.769531 216.601562 98.226562 C 217.449219 94.566406 220.738281 91.964844 223.597656 89.382812 C 226.4375 86.78125 229.171875 83.261719 228.339844 79.601562 C 230.78125 88.707031 226.296875 99.148438 221.03125 106.710938 C 216.980469 112.519531 203.164062 117.253906 196.0625 116.074219 C 197.515625 116.371094 206.246094 117.324219 207.683594 117.617188 C 195.628906 117.878906 172.320312 184.984375 144.25 186.113281 C 149.011719 186.179688 152.875 190.585938 152.875 190.585938 C 152.875 190.585938 145.480469 187.949219 142.292969 188.296875 C 141.496094 188.367188 149.375 155.757812 179.578125 124.902344 C 147.367188 152.863281 140.164062 190.082031 139.921875 190.8125 C 137.324219 199.34375 134.398438 208.050781 128.910156 215.058594 C 128.148438 216.03125 126.378906 216.878906 125.964844 215.753906 C 128.25 212.769531 130.226562 209.628906 131.816406 206.316406 Z M 131.78125 206.316406" fill-rule="evenodd"/></g><g clip-path="url(#b)"><path fill="#FFF" d="M 203.785156 202.191406 C 203.785156 198.445312 194.765625 197.664062 190.417969 197.664062 L 189.328125 197.664062 C 178.070312 197.664062 163.039062 201.445312 154.660156 204.53125 C 149.464844 206.4375 144.457031 208.140625 139.472656 210.117188 C 137.949219 210.722656 133.03125 212.71875 129.359375 214.367188 C 129.1875 214.589844 129.03125 214.800781 128.855469 215.023438 C 128.753906 215.164062 128.613281 215.300781 128.476562 215.441406 C 129.792969 214.957031 131.140625 214.417969 132.355469 214 C 134.867188 213.167969 137.066406 212.492188 139.574219 211.640625 C 143.800781 210.21875 149.828125 208.226562 154.207031 207.304688 C 164.527344 205.136719 174.398438 201.808594 186.816406 201.808594 L 188.253906 201.808594 C 190.453125 201.808594 197.273438 202.101562 197.273438 203.804688 C 197.273438 205.605469 189.480469 210.949219 187.921875 212.527344 C 185.757812 214.710938 181.203125 219.726562 181.203125 223.695312 C 181.203125 227.511719 185.535156 227.199219 186.988281 228.222656 L 193.136719 228.222656 C 193.222656 228.171875 199.507812 226.941406 200.425781 226.664062 C 202.78125 225.953125 204.910156 225.152344 207.058594 224.441406 C 211.457031 223.003906 215.441406 220.957031 219.597656 219.292969 C 227.683594 216.03125 235.527344 211.175781 243.144531 207.429688 C 244.792969 206.613281 246.871094 205.539062 248.929688 204.410156 C 234.488281 208.15625 210.523438 222.984375 193.328125 222.984375 L 192.234375 222.984375 C 190.867188 222.984375 187.714844 222.308594 187.714844 221.183594 L 187.714844 220.644531 C 187.714844 216.742188 203.785156 207.808594 203.785156 202.191406 Z M 203.785156 202.191406" fill-rule="evenodd"/></g><g fill="#38B6FF"><g><g><path d="M 9.390625 2.953125 C 7.128906 2.398438 5.453125 0.507812 4.359375 -2.71875 C 4.328125 -2.90625 4.3125 -3.289062 4.3125 -3.875 C 4.3125 -4.675781 4.34375 -5.472656 4.40625 -6.265625 C 4.46875 -7.054688 4.550781 -7.519531 4.65625 -7.65625 C 4.75 -7.71875 4.796875 -7.910156 4.796875 -8.234375 C 4.765625 -8.421875 4.875 -8.953125 5.125 -9.828125 C 5.351562 -10.410156 5.421875 -10.910156 5.328125 -11.328125 C 5.359375 -11.390625 5.410156 -11.5 5.484375 -11.65625 C 5.566406 -11.820312 5.675781 -11.988281 5.8125 -12.15625 C 5.96875 -12.3125 6.050781 -12.476562 6.0625 -12.65625 C 6.082031 -12.832031 6.078125 -12.957031 6.046875 -13.03125 L 6.046875 -13.078125 C 6.046875 -13.203125 6.085938 -13.367188 6.171875 -13.578125 C 6.253906 -13.785156 6.34375 -13.957031 6.4375 -14.09375 C 6.53125 -14.1875 6.617188 -14.3125 6.703125 -14.46875 C 6.785156 -14.632812 6.84375 -14.75 6.875 -14.8125 C 6.90625 -15.039062 7.15625 -15.757812 7.625 -16.96875 C 8.09375 -18.175781 8.410156 -18.910156 8.578125 -19.171875 L 8.578125 -19.265625 C 8.703125 -19.585938 8.878906 -19.925781 9.109375 -20.28125 C 9.171875 -20.738281 9.394531 -21.367188 9.78125 -22.171875 C 10.519531 -23.816406 11.554688 -25.710938 12.890625 -27.859375 C 14.234375 -30.015625 15.296875 -31.460938 16.078125 -32.203125 C 16.910156 -33.171875 17.671875 -33.65625 18.359375 -33.65625 C 18.710938 -33.65625 19.035156 -33.507812 19.328125 -33.21875 C 19.546875 -32.988281 19.726562 -32.664062 19.875 -32.25 C 20.019531 -31.832031 20.09375 -31.460938 20.09375 -31.140625 C 20.09375 -30.679688 19.960938 -30.4375 19.703125 -30.40625 C 19.378906 -30.175781 18.882812 -29.515625 18.21875 -28.421875 C 17.5625 -27.328125 16.6875 -25.78125 15.59375 -23.78125 L 14.859375 -22.421875 C 14.441406 -21.515625 14.078125 -20.753906 13.765625 -20.140625 C 13.460938 -19.523438 13.265625 -19.125 13.171875 -18.9375 L 12.984375 -18.5 C 12.203125 -16.851562 11.472656 -15.078125 10.796875 -13.171875 C 10.640625 -12.972656 10.535156 -12.769531 10.484375 -12.5625 C 10.429688 -12.351562 10.40625 -12.21875 10.40625 -12.15625 C 10.34375 -12.1875 10.285156 -12.097656 10.234375 -11.890625 C 10.191406 -11.679688 10.140625 -11.492188 10.078125 -11.328125 C 9.847656 -11.140625 9.734375 -10.671875 9.734375 -9.921875 C 9.441406 -9.148438 9.179688 -8.179688 8.953125 -7.015625 C 8.734375 -5.859375 8.625 -4.910156 8.625 -4.171875 C 8.625 -3.453125 8.742188 -2.867188 8.984375 -2.421875 C 9.222656 -1.972656 9.601562 -1.632812 10.125 -1.40625 C 10.894531 -1.019531 11.472656 -0.828125 11.859375 -0.828125 C 12.085938 -0.796875 12.4375 -0.8125 12.90625 -0.875 C 13.375 -0.9375 13.914062 -1.015625 14.53125 -1.109375 L 14.484375 -1.109375 C 14.640625 -1.140625 15.523438 -1.332031 17.140625 -1.6875 C 17.910156 -1.789062 18.554688 -1.9375 19.078125 -2.125 C 19.335938 -2.195312 19.703125 -2.300781 20.171875 -2.4375 C 20.640625 -2.582031 20.984375 -2.664062 21.203125 -2.6875 C 21.429688 -2.707031 21.59375 -2.679688 21.6875 -2.609375 C 21.882812 -2.421875 22.070312 -2.15625 22.25 -1.8125 C 22.425781 -1.476562 22.46875 -1.179688 22.375 -0.921875 C 22.3125 -0.753906 21.972656 -0.40625 21.359375 0.125 C 20.742188 0.65625 20.0625 1.160156 19.3125 1.640625 C 18.570312 2.128906 17.929688 2.453125 17.390625 2.609375 C 16.285156 3.097656 14.703125 3.34375 12.640625 3.34375 C 11.179688 3.34375 10.097656 3.210938 9.390625 2.953125 Z M 9.390625 2.953125" transform="translate(105.11 268.382)"/></g></g></g><g fill="#38B6FF"><g><g><path d="M 19.21875 -17.875 C 19.644531 -17.414062 19.953125 -17.03125 20.140625 -16.71875 C 20.335938 -16.414062 20.4375 -16.054688 20.4375 -15.640625 C 20.4375 -14.960938 20.175781 -14.15625 19.65625 -13.21875 C 19.394531 -12.476562 19.113281 -11.785156 18.8125 -11.140625 C 18.507812 -10.492188 18.273438 -10.070312 18.109375 -9.875 L 17 -7.3125 C 16.507812 -6.25 15.910156 -5.003906 15.203125 -3.578125 C 14.328125 -1.773438 13.710938 -0.4375 13.359375 0.4375 L 12.734375 1.453125 C 11.117188 4.035156 9.875 5.84375 9 6.875 C 8.289062 7.519531 7.453125 8.1875 6.484375 8.875 C 5.515625 9.570312 4.742188 9.972656 4.171875 10.078125 C 3.554688 10.203125 2.875 10.265625 2.125 10.265625 C 0.800781 10.265625 -0.375 10.035156 -1.40625 9.578125 C -2.4375 9.128906 -3.035156 8.582031 -3.203125 7.9375 L -3.296875 7.359375 C -3.296875 6.804688 -3.078125 6.375 -2.640625 6.0625 C -2.203125 5.757812 -1.722656 5.609375 -1.203125 5.609375 C -0.878906 5.609375 -0.640625 5.691406 -0.484375 5.859375 C -0.421875 5.890625 -0.164062 6.066406 0.28125 6.390625 C 0.738281 6.710938 1.351562 6.875 2.125 6.875 C 3.582031 6.875 5.003906 5.921875 6.390625 4.015625 C 7.742188 1.859375 8.773438 0.132812 9.484375 -1.15625 C 8.835938 -1.550781 8.207031 -2.207031 7.59375 -3.125 C 6.988281 -4.039062 6.71875 -4.675781 6.78125 -5.03125 L 6.78125 -5.5625 C 6.519531 -5.5625 6.332031 -6.046875 6.21875 -7.015625 C 6.101562 -7.984375 6.046875 -9.179688 6.046875 -10.609375 C 6.046875 -12.148438 6.082031 -13.226562 6.15625 -13.84375 C 6.28125 -14.363281 6.347656 -15.003906 6.359375 -15.765625 C 6.378906 -16.523438 6.390625 -17.015625 6.390625 -17.234375 C 6.359375 -17.691406 6.445312 -18.085938 6.65625 -18.421875 C 6.863281 -18.765625 7.066406 -19 7.265625 -19.125 C 7.679688 -19.289062 8.019531 -19.375 8.28125 -19.375 C 9.757812 -19.375 10.5 -17.789062 10.5 -14.625 C 10.5 -14.007812 10.484375 -13.539062 10.453125 -13.21875 C 10.390625 -11.664062 10.359375 -10.566406 10.359375 -9.921875 C 10.359375 -7.441406 10.695312 -5.828125 11.375 -5.078125 C 11.664062 -5.753906 11.910156 -6.238281 12.109375 -6.53125 C 12.554688 -7.46875 12.8125 -8.066406 12.875 -8.328125 C 12.945312 -8.554688 13.125 -8.925781 13.40625 -9.4375 L 14.046875 -10.75 C 14.109375 -10.945312 14.316406 -11.566406 14.671875 -12.609375 C 15.023438 -13.660156 15.378906 -14.507812 15.734375 -15.15625 C 15.867188 -15.414062 16.0625 -15.796875 16.3125 -16.296875 C 16.570312 -16.796875 16.78125 -17.15625 16.9375 -17.375 C 17.101562 -17.601562 17.285156 -17.75 17.484375 -17.8125 C 17.742188 -18.039062 18.015625 -18.15625 18.296875 -18.15625 C 18.585938 -18.15625 18.894531 -18.0625 19.21875 -17.875 Z M 19.21875 -17.875" transform="translate(124.522 268.382)"/></g></g></g><g fill="#38B6FF"><g><g><path d="M 7.125 5.859375 C 6.925781 5.984375 6.476562 5.828125 5.78125 5.390625 C 5.09375 4.960938 4.519531 4.488281 4.0625 3.96875 C 3.875 3.78125 3.742188 3.59375 3.671875 3.40625 C 3.609375 3.226562 3.578125 3 3.578125 2.71875 L 3.6875 1.5 C 3.84375 1.019531 3.921875 0.457031 3.921875 -0.1875 C 3.921875 -0.445312 4.03125 -1.265625 4.25 -2.640625 C 4.476562 -4.015625 4.660156 -5.003906 4.796875 -5.609375 L 4.9375 -6.203125 C 5.195312 -7.265625 5.390625 -8.25 5.515625 -9.15625 C 5.773438 -9.957031 5.992188 -10.753906 6.171875 -11.546875 C 6.347656 -12.335938 6.4375 -12.878906 6.4375 -13.171875 C 6.4375 -13.753906 6.664062 -14.175781 7.125 -14.4375 C 7.15625 -14.6875 7.394531 -15.21875 7.84375 -16.03125 C 8.613281 -18.226562 9.1875 -19.800781 9.5625 -20.75 C 9.9375 -21.695312 10.332031 -22.53125 10.75 -23.25 C 11.332031 -24.851562 11.800781 -25.867188 12.15625 -26.296875 C 12.382812 -26.835938 13 -27.640625 14 -28.703125 C 15 -29.773438 15.882812 -30.632812 16.65625 -31.28125 C 18.269531 -32.125 19.625 -32.546875 20.71875 -32.546875 C 21.65625 -32.546875 22.738281 -31.960938 23.96875 -30.796875 C 24.414062 -30.304688 24.671875 -29.976562 24.734375 -29.8125 C 24.804688 -29.65625 24.84375 -29.351562 24.84375 -28.90625 C 24.707031 -28.289062 24.140625 -27.207031 23.140625 -25.65625 C 22.140625 -24.113281 21.507812 -23.328125 21.25 -23.296875 C 20.863281 -23.160156 20.609375 -23.09375 20.484375 -23.09375 C 20.191406 -23.09375 19.945312 -23.1875 19.75 -23.375 C 19.5625 -23.570312 19.46875 -23.867188 19.46875 -24.265625 C 19.46875 -24.867188 19.660156 -25.578125 20.046875 -26.390625 C 20.429688 -26.910156 20.625 -27.363281 20.625 -27.75 C 20.625 -28.289062 20.191406 -28.5625 19.328125 -28.5625 C 19.066406 -28.4375 18.554688 -27.976562 17.796875 -27.1875 C 17.035156 -26.394531 16.65625 -25.90625 16.65625 -25.71875 C 16.625 -25.644531 16.535156 -25.472656 16.390625 -25.203125 C 16.242188 -24.929688 16.023438 -24.617188 15.734375 -24.265625 C 15.148438 -23.453125 14.859375 -22.953125 14.859375 -22.765625 C 14.859375 -22.335938 14.765625 -22.125 14.578125 -22.125 C 14.546875 -22.0625 14.472656 -21.875 14.359375 -21.5625 C 14.242188 -21.257812 14.085938 -20.929688 13.890625 -20.578125 C 13.765625 -20.285156 13.601562 -19.960938 13.40625 -19.609375 C 13.21875 -19.253906 13.054688 -19.015625 12.921875 -18.890625 L 12.984375 -18.890625 C 12.878906 -18.660156 12.695312 -18.226562 12.4375 -17.59375 C 12.1875 -16.96875 12.0625 -16.609375 12.0625 -16.515625 C 12.0625 -16.378906 12.253906 -16.3125 12.640625 -16.3125 C 13.347656 -16.3125 14.347656 -16.488281 15.640625 -16.84375 C 16.054688 -16.976562 16.363281 -17.046875 16.5625 -17.046875 C 16.789062 -17.046875 17.113281 -16.976562 17.53125 -16.84375 C 17.882812 -16.625 18.171875 -16.125 18.390625 -15.34375 C 18.617188 -14.570312 18.671875 -14.085938 18.546875 -13.890625 C 18.515625 -13.765625 18.164062 -13.585938 17.5 -13.359375 C 16.84375 -13.140625 16.160156 -12.960938 15.453125 -12.828125 L 13.46875 -12.390625 C 11.625 -12.003906 10.703125 -11.75 10.703125 -11.625 C 10.566406 -11.625 10.453125 -11.554688 10.359375 -11.421875 C 10.265625 -11.296875 10.21875 -11.171875 10.21875 -11.046875 C 10.21875 -10.585938 10.148438 -10.242188 10.015625 -10.015625 C 9.859375 -9.566406 9.59375 -8.488281 9.21875 -6.78125 C 8.851562 -5.070312 8.671875 -4.019531 8.671875 -3.625 C 8.410156 -3.300781 8.28125 -2.722656 8.28125 -1.890625 C 8.082031 -1.535156 7.984375 -1.128906 7.984375 -0.671875 C 7.984375 -0.484375 7.96875 -0.320312 7.9375 -0.1875 C 7.9375 -0.03125 7.90625 0.351562 7.84375 0.96875 C 7.78125 1.582031 7.75 2.144531 7.75 2.65625 L 7.609375 4.0625 C 7.566406 4.457031 7.515625 4.8125 7.453125 5.125 C 7.390625 5.445312 7.28125 5.691406 7.125 5.859375 Z M 7.125 5.859375" transform="translate(139.819 268.382)"/></g></g></g><g fill="#38B6FF"><g><g><path d="M 25.421875 -31.328125 C 27.003906 -30.390625 28.164062 -29.304688 28.90625 -28.078125 C 29.644531 -26.859375 30.015625 -25.617188 30.015625 -24.359375 C 30.015625 -23.515625 29.867188 -22.722656 29.578125 -21.984375 C 29.066406 -20.691406 27.757812 -19.164062 25.65625 -17.40625 C 23.5625 -15.644531 21.609375 -14.378906 19.796875 -13.609375 C 18.023438 -12.734375 16.15625 -11.988281 14.1875 -11.375 L 13.40625 -11.234375 C 14.3125 -9.460938 15.441406 -7.816406 16.796875 -6.296875 C 17.796875 -5.128906 19.164062 -3.796875 20.90625 -2.296875 C 22.65625 -0.796875 24.160156 0.257812 25.421875 0.875 C 25.546875 1 25.609375 1.191406 25.609375 1.453125 C 25.609375 1.867188 25.492188 2.351562 25.265625 2.90625 C 25.046875 3.457031 24.875 3.765625 24.75 3.828125 C 24.351562 3.921875 24.078125 3.96875 23.921875 3.96875 C 23.109375 3.96875 22.285156 3.691406 21.453125 3.140625 C 19.929688 2.242188 18.457031 1.191406 17.03125 -0.015625 C 15.613281 -1.234375 14.066406 -2.8125 12.390625 -4.75 C 11.847656 -5.394531 11.429688 -6.015625 11.140625 -6.609375 C 10.847656 -7.203125 10.410156 -8.195312 9.828125 -9.59375 C 9.085938 -6.875 7.648438 -2.707031 5.515625 2.90625 C 5.484375 3.0625 5.347656 3.1875 5.109375 3.28125 C 4.867188 3.382812 4.585938 3.4375 4.265625 3.4375 C 3.484375 3.4375 2.820312 3.210938 2.28125 2.765625 C 2.207031 2.691406 2.085938 2.570312 1.921875 2.40625 C 1.765625 2.25 1.65625 2.113281 1.59375 2 C 1.53125 1.894531 1.5 1.773438 1.5 1.640625 C 1.5 1.347656 1.757812 0.625 2.28125 -0.53125 L 2.859375 -1.84375 C 3.046875 -3 3.515625 -4.335938 4.265625 -5.859375 C 4.484375 -6.628906 5.789062 -9.921875 8.1875 -15.734375 L 9.0625 -17.875 L 9.59375 -19.125 C 10.457031 -21.320312 11.632812 -24.050781 13.125 -27.3125 C 13.25 -27.664062 13.191406 -28.007812 12.953125 -28.34375 C 12.710938 -28.6875 12.332031 -28.859375 11.8125 -28.859375 C 11.457031 -29.273438 11.28125 -29.675781 11.28125 -30.0625 C 11.28125 -30.457031 11.441406 -30.71875 11.765625 -30.84375 L 16.21875 -32.34375 C 17.351562 -32.601562 18.453125 -32.734375 19.515625 -32.734375 C 21.679688 -32.734375 23.648438 -32.265625 25.421875 -31.328125 Z M 17.8125 -16.90625 C 23.082031 -19.351562 25.632812 -21.914062 25.46875 -24.59375 C 25.46875 -25.238281 25.1875 -25.957031 24.625 -26.75 C 24.0625 -27.539062 23.472656 -28.035156 22.859375 -28.234375 C 21.304688 -28.617188 20.191406 -28.8125 19.515625 -28.8125 C 18.960938 -28.8125 18.566406 -28.6875 18.328125 -28.4375 C 18.085938 -28.195312 17.882812 -27.773438 17.71875 -27.171875 C 17.71875 -27.097656 17.523438 -26.675781 17.140625 -25.90625 C 16.296875 -24.132812 15.679688 -22.742188 15.296875 -21.734375 C 14.972656 -21.160156 14.617188 -20.4375 14.234375 -19.5625 C 13.722656 -18.5 13.304688 -17.632812 12.984375 -16.96875 C 12.660156 -16.3125 12.472656 -15.875 12.421875 -15.65625 C 12.367188 -15.445312 12.410156 -15.28125 12.546875 -15.15625 C 13.191406 -15.1875 13.859375 -15.332031 14.546875 -15.59375 C 15.242188 -15.851562 16.332031 -16.289062 17.8125 -16.90625 Z M 17.8125 -16.90625" transform="translate(163.636 268.382)"/></g></g></g><g fill="#38B6FF"><g><g><path d="M 10.796875 0 C 8.953125 0 7.46875 -0.515625 6.34375 -1.546875 C 5.21875 -2.578125 4.65625 -4.046875 4.65625 -5.953125 C 4.65625 -6.691406 4.703125 -7.515625 4.796875 -8.421875 C 4.859375 -9.203125 5.171875 -10.269531 5.734375 -11.625 C 6.296875 -12.976562 7.070312 -14.300781 8.0625 -15.59375 C 9.050781 -16.882812 10.207031 -17.835938 11.53125 -18.453125 C 12.132812 -18.742188 12.644531 -18.941406 13.0625 -19.046875 C 13.488281 -19.160156 13.976562 -19.21875 14.53125 -19.21875 C 15.851562 -19.21875 16.925781 -18.972656 17.75 -18.484375 C 18.570312 -18.003906 19.148438 -17.457031 19.484375 -16.84375 C 19.828125 -16.238281 20 -15.707031 20 -15.25 L 20 -14.859375 C 20 -14.472656 19.769531 -13.765625 19.3125 -12.734375 C 18.863281 -11.703125 18.144531 -10.734375 17.15625 -9.828125 C 16.175781 -8.921875 14.910156 -8.421875 13.359375 -8.328125 C 12.585938 -8.328125 11.835938 -8.398438 11.109375 -8.546875 C 10.378906 -8.691406 9.921875 -8.765625 9.734375 -8.765625 C 9.242188 -8.765625 8.9375 -8.585938 8.8125 -8.234375 C 8.6875 -7.878906 8.625 -7.28125 8.625 -6.4375 C 8.71875 -5.53125 8.960938 -4.898438 9.359375 -4.546875 C 9.765625 -4.191406 10.359375 -4.015625 11.140625 -4.015625 C 11.523438 -4.015625 11.976562 -4.128906 12.5 -4.359375 C 13.007812 -4.617188 13.617188 -5.019531 14.328125 -5.5625 C 14.710938 -5.882812 15.019531 -6.109375 15.25 -6.234375 C 15.476562 -6.367188 15.753906 -6.4375 16.078125 -6.4375 C 16.367188 -6.4375 16.707031 -6.242188 17.09375 -5.859375 C 17.476562 -5.472656 17.6875 -5.101562 17.71875 -4.75 C 17.65625 -4.363281 17.300781 -3.78125 16.65625 -3 C 16.007812 -2.226562 15.171875 -1.535156 14.140625 -0.921875 C 13.109375 -0.304688 11.992188 0 10.796875 0 Z M 12.5 -11.671875 C 13.101562 -11.671875 13.519531 -11.734375 13.75 -11.859375 C 14.070312 -12.023438 14.5625 -12.4375 15.21875 -13.09375 C 15.882812 -13.757812 16.234375 -14.222656 16.265625 -14.484375 C 16.265625 -14.804688 16.128906 -15.070312 15.859375 -15.28125 C 15.585938 -15.488281 15.207031 -15.625 14.71875 -15.6875 L 14.1875 -15.6875 C 13.769531 -15.6875 13.164062 -15.335938 12.375 -14.640625 C 11.582031 -13.953125 10.894531 -13.15625 10.3125 -12.25 C 10.34375 -12.09375 10.582031 -11.957031 11.03125 -11.84375 C 11.488281 -11.726562 11.976562 -11.671875 12.5 -11.671875 Z M 12.5 -11.671875" transform="translate(186.534 268.382)"/></g></g></g><g fill="#38B6FF"><g><g><path d="M 10.703125 0.1875 C 10.316406 0.257812 10.007812 0.296875 9.78125 0.296875 C 8.457031 0.296875 7.285156 -0.128906 6.265625 -0.984375 C 5.253906 -1.847656 4.75 -2.941406 4.75 -4.265625 L 4.703125 -5.03125 C 4.703125 -6.550781 5.039062 -8.3125 5.71875 -10.3125 C 6.394531 -12.3125 7.234375 -13.941406 8.234375 -15.203125 C 9.035156 -16.140625 9.726562 -16.898438 10.3125 -17.484375 C 10.894531 -18.066406 11.425781 -18.453125 11.90625 -18.640625 C 12.332031 -18.804688 12.867188 -18.953125 13.515625 -19.078125 C 14.160156 -19.203125 14.644531 -19.265625 14.96875 -19.265625 C 15.613281 -19.109375 16.21875 -18.882812 16.78125 -18.59375 C 17.34375 -18.300781 17.625 -17.976562 17.625 -17.625 L 17.875 -17.390625 C 18.09375 -17.390625 18.351562 -17.03125 18.65625 -16.3125 C 18.96875 -15.601562 19.125 -14.957031 19.125 -14.375 C 19.125 -14.09375 19.078125 -13.851562 18.984375 -13.65625 C 18.847656 -13.039062 18.59375 -12.441406 18.21875 -11.859375 C 17.851562 -11.273438 17.539062 -10.984375 17.28125 -10.984375 C 16.925781 -10.984375 16.75 -10.890625 16.75 -10.703125 C 16.75 -10.535156 16.554688 -10.453125 16.171875 -10.453125 C 15.847656 -10.453125 15.507812 -10.523438 15.15625 -10.671875 C 14.800781 -10.816406 14.59375 -11.003906 14.53125 -11.234375 C 14.53125 -11.390625 14.65625 -12.035156 14.90625 -13.171875 C 15.007812 -13.648438 15.0625 -14.050781 15.0625 -14.375 C 15.0625 -14.957031 14.867188 -15.25 14.484375 -15.25 C 14.378906 -15.25 14.132812 -15.1875 13.75 -15.0625 C 12.914062 -14.601562 12.242188 -14.078125 11.734375 -13.484375 C 11.234375 -12.890625 10.789062 -12.070312 10.40625 -11.03125 C 10.019531 -10 9.570312 -8.5 9.0625 -6.53125 C 8.957031 -6.144531 8.90625 -5.789062 8.90625 -5.46875 C 8.90625 -5.082031 8.953125 -4.769531 9.046875 -4.53125 C 9.148438 -4.289062 9.25 -4.148438 9.34375 -4.109375 C 9.507812 -4.046875 9.800781 -4.015625 10.21875 -4.015625 C 11.019531 -4.015625 11.664062 -4.160156 12.15625 -4.453125 C 12.738281 -4.773438 13.300781 -5.140625 13.84375 -5.546875 C 14.394531 -5.953125 14.734375 -6.203125 14.859375 -6.296875 C 14.929688 -6.359375 15.0625 -6.539062 15.25 -6.84375 C 15.445312 -7.15625 15.65625 -7.359375 15.875 -7.453125 C 16.070312 -7.742188 16.316406 -7.921875 16.609375 -7.984375 C 16.898438 -8.054688 17.191406 -8.09375 17.484375 -8.09375 C 17.773438 -8.09375 17.96875 -8.09375 18.0625 -8.09375 C 18.476562 -7.957031 18.878906 -7.660156 19.265625 -7.203125 C 19.660156 -6.753906 19.726562 -6.46875 19.46875 -6.34375 C 19.375 -6.34375 19.304688 -6.3125 19.265625 -6.25 C 19.234375 -6.1875 19.21875 -6.132812 19.21875 -6.09375 C 19.289062 -5.9375 19.035156 -5.507812 18.453125 -4.8125 C 17.867188 -4.125 17.222656 -3.460938 16.515625 -2.828125 C 15.804688 -2.203125 15.320312 -1.890625 15.0625 -1.890625 C 14.925781 -1.890625 14.8125 -1.875 14.71875 -1.84375 C 14.625 -1.8125 14.578125 -1.726562 14.578125 -1.59375 C 14.578125 -1.46875 14.082031 -1.171875 13.09375 -0.703125 C 12.113281 -0.234375 11.316406 0.0625 10.703125 0.1875 Z M 10.703125 0.1875" transform="translate(201.492 268.382)"/></g></g></g><g fill="#38B6FF"><g><g><path d="M 8.140625 -0.34375 C 7.742188 -0.34375 7.429688 -0.40625 7.203125 -0.53125 C 6.984375 -0.65625 6.664062 -0.898438 6.25 -1.265625 C 5.601562 -1.941406 5.101562 -2.640625 4.75 -3.359375 C 4.394531 -4.085938 4.265625 -4.726562 4.359375 -5.28125 C 4.453125 -5.5 4.488281 -5.722656 4.46875 -5.953125 C 4.457031 -6.179688 4.453125 -6.328125 4.453125 -6.390625 C 4.328125 -6.515625 4.265625 -6.601562 4.265625 -6.65625 C 4.265625 -6.707031 4.296875 -6.753906 4.359375 -6.796875 C 4.421875 -6.847656 4.46875 -6.90625 4.5 -6.96875 C 4.695312 -6.96875 4.765625 -7.144531 4.703125 -7.5 C 4.628906 -7.757812 4.738281 -8.320312 5.03125 -9.1875 C 5.320312 -10.0625 5.695312 -10.875 6.15625 -11.625 C 6.507812 -12.207031 7.03125 -12.929688 7.71875 -13.796875 C 8.414062 -14.671875 9.039062 -15.332031 9.59375 -15.78125 C 11.207031 -17.175781 12.660156 -18.015625 13.953125 -18.296875 C 14.585938 -18.460938 15.210938 -18.546875 15.828125 -18.546875 C 16.765625 -18.546875 17.492188 -18.285156 18.015625 -17.765625 C 18.722656 -17.472656 19.238281 -17.050781 19.5625 -16.5 C 19.882812 -15.957031 20.09375 -15.234375 20.1875 -14.328125 C 20.21875 -14.140625 20.234375 -13.816406 20.234375 -13.359375 C 20.234375 -10.972656 19.332031 -8.488281 17.53125 -5.90625 C 16.789062 -4.84375 16.046875 -3.988281 15.296875 -3.34375 C 14.554688 -2.695312 13.65625 -2.050781 12.59375 -1.40625 C 12.007812 -1.019531 11.394531 -0.757812 10.75 -0.625 C 10.101562 -0.5 9.234375 -0.40625 8.140625 -0.34375 Z M 13.078125 -6.25 C 13.691406 -6.789062 14.132812 -7.34375 14.40625 -7.90625 C 14.675781 -8.476562 15.070312 -9.472656 15.59375 -10.890625 C 15.78125 -11.179688 15.875 -11.765625 15.875 -12.640625 C 15.875 -13.410156 15.765625 -13.847656 15.546875 -13.953125 C 15.378906 -14.078125 15.1875 -14.140625 14.96875 -14.140625 C 14.675781 -14.140625 14.207031 -13.914062 13.5625 -13.46875 C 12.425781 -12.5 11.476562 -11.488281 10.71875 -10.4375 C 9.96875 -9.382812 9.445312 -8.179688 9.15625 -6.828125 C 9.125 -6.703125 9.109375 -6.507812 9.109375 -6.25 C 9.109375 -5.144531 9.492188 -4.59375 10.265625 -4.59375 C 11.003906 -4.59375 11.941406 -5.144531 13.078125 -6.25 Z M 13.078125 -6.25" transform="translate(217.903 268.382)"/></g></g></g><g fill="#38B6FF"><g><g><path d="M 5.765625 -1.3125 C 5.304688 -1.664062 4.945312 -2.003906 4.6875 -2.328125 C 4.4375 -2.648438 4.359375 -3.101562 4.453125 -3.6875 C 4.546875 -4.78125 4.789062 -6.050781 5.1875 -7.5 L 5.421875 -8.46875 C 5.515625 -9.34375 6.019531 -11.0625 6.9375 -13.625 C 7.863281 -16.195312 8.632812 -17.9375 9.25 -18.84375 C 9.570312 -19.164062 10.117188 -19.328125 10.890625 -19.328125 C 11.535156 -19.328125 11.988281 -19.195312 12.25 -18.9375 C 12.507812 -18.738281 12.640625 -18.414062 12.640625 -17.96875 C 12.640625 -17.21875 12.171875 -15.910156 11.234375 -14.046875 L 10.75 -13.03125 C 10.519531 -12.601562 10.332031 -12.210938 10.1875 -11.859375 C 10.039062 -11.503906 10.050781 -11.34375 10.21875 -11.375 C 10.570312 -11.988281 11.429688 -12.828125 12.796875 -13.890625 C 14.171875 -14.960938 15.117188 -15.625 15.640625 -15.875 C 15.867188 -16.007812 16.160156 -16.140625 16.515625 -16.265625 C 16.867188 -16.398438 17.109375 -16.5 17.234375 -16.5625 C 17.816406 -16.851562 18.476562 -17 19.21875 -17 C 19.738281 -17 20.179688 -16.925781 20.546875 -16.78125 C 20.921875 -16.632812 21.175781 -16.414062 21.3125 -16.125 C 21.34375 -15.894531 21.429688 -15.710938 21.578125 -15.578125 C 21.722656 -15.453125 21.828125 -15.375 21.890625 -15.34375 C 21.984375 -15.34375 22.046875 -15.300781 22.078125 -15.21875 C 22.109375 -15.144531 22.125 -15.09375 22.125 -15.0625 C 22.125 -14.800781 21.894531 -14.46875 21.4375 -14.0625 C 20.988281 -13.664062 20.523438 -13.445312 20.046875 -13.40625 C 19.691406 -13.375 19.320312 -13.296875 18.9375 -13.171875 C 18.550781 -13.046875 18.160156 -12.882812 17.765625 -12.6875 L 16.515625 -11.953125 C 15.410156 -11.410156 14.476562 -10.875 13.71875 -10.34375 C 12.96875 -9.8125 12.203125 -9.125 11.421875 -8.28125 C 11.265625 -8.113281 11.03125 -7.882812 10.71875 -7.59375 C 10.414062 -7.3125 10.148438 -6.972656 9.921875 -6.578125 C 9.703125 -6.359375 9.46875 -5.769531 9.21875 -4.8125 C 8.976562 -3.863281 8.859375 -3.273438 8.859375 -3.046875 C 8.828125 -2.953125 8.757812 -2.757812 8.65625 -2.46875 C 8.5625 -2.175781 8.421875 -1.914062 8.234375 -1.6875 C 7.941406 -1.332031 7.695312 -1.070312 7.5 -0.90625 C 7.3125 -0.75 7.101562 -0.671875 6.875 -0.671875 C 6.550781 -0.671875 6.179688 -0.882812 5.765625 -1.3125 Z M 5.765625 -1.3125" transform="translate(234.217 268.382)"/></g></g></g><g fill="#38B6FF"><g><g><path d="M 18.109375 0.921875 C 17.691406 1.015625 17.285156 0.914062 16.890625 0.625 C 16.503906 0.332031 16.21875 -0.00390625 16.03125 -0.390625 C 15.863281 -0.835938 15.75 -1.28125 15.6875 -1.71875 C 15.625 -2.15625 15.578125 -2.742188 15.546875 -3.484375 L 15.5 -5.125 L 13.515625 -3.34375 C 11.472656 -1.4375 9.582031 -0.484375 7.84375 -0.484375 C 7.320312 -0.578125 6.664062 -1.007812 5.875 -1.78125 C 5.09375 -2.5625 4.585938 -3.226562 4.359375 -3.78125 C 4.234375 -4.039062 4.171875 -4.441406 4.171875 -4.984375 C 4.171875 -6.210938 4.488281 -7.691406 5.125 -9.421875 C 5.769531 -11.148438 6.578125 -12.546875 7.546875 -13.609375 C 8.265625 -14.671875 9.125 -15.472656 10.125 -16.015625 C 11.125 -16.566406 12.140625 -16.84375 13.171875 -16.84375 C 14.140625 -16.84375 14.992188 -16.632812 15.734375 -16.21875 C 16.191406 -15.988281 16.5625 -15.875 16.84375 -15.875 C 17.164062 -15.875 17.378906 -16.085938 17.484375 -16.515625 C 17.515625 -16.671875 17.707031 -17.316406 18.0625 -18.453125 L 18.59375 -20 C 19.300781 -22.125 19.910156 -23.832031 20.421875 -25.125 C 20.941406 -26.414062 21.578125 -27.835938 22.328125 -29.390625 C 22.648438 -30.066406 22.988281 -30.566406 23.34375 -30.890625 C 23.695312 -31.210938 24.019531 -31.359375 24.3125 -31.328125 C 24.726562 -31.328125 25.1875 -31.1875 25.6875 -30.90625 C 26.1875 -30.632812 26.519531 -30.289062 26.6875 -29.875 C 26.78125 -29.644531 26.828125 -29.367188 26.828125 -29.046875 C 26.828125 -28.691406 26.726562 -28.320312 26.53125 -27.9375 C 25.695312 -26.488281 24.664062 -24.113281 23.4375 -20.8125 C 22.207031 -17.519531 21.253906 -14.664062 20.578125 -12.25 C 20.316406 -11.375 20.128906 -10.160156 20.015625 -8.609375 C 19.910156 -7.066406 19.859375 -5.550781 19.859375 -4.0625 C 19.859375 -2.644531 19.90625 -1.757812 20 -1.40625 C 20.0625 -1.207031 20.09375 -0.945312 20.09375 -0.625 C 20.09375 -0.0820312 19.90625 0.289062 19.53125 0.5 C 19.164062 0.71875 18.691406 0.859375 18.109375 0.921875 Z M 10.125 -4.9375 C 10.863281 -5.226562 11.6875 -5.710938 12.59375 -6.390625 C 13.5625 -7.097656 14.257812 -7.726562 14.6875 -8.28125 C 15.125 -8.832031 15.472656 -9.523438 15.734375 -10.359375 C 15.796875 -10.523438 15.828125 -10.753906 15.828125 -11.046875 C 15.828125 -11.617188 15.554688 -12.148438 15.015625 -12.640625 C 14.691406 -12.898438 14.316406 -13.03125 13.890625 -13.03125 C 13.210938 -13.03125 12.503906 -12.671875 11.765625 -11.953125 C 10.921875 -11.179688 10.238281 -10.316406 9.71875 -9.359375 C 9.207031 -8.410156 8.773438 -7.113281 8.421875 -5.46875 C 8.359375 -5.238281 8.390625 -5.050781 8.515625 -4.90625 C 8.648438 -4.769531 8.863281 -4.703125 9.15625 -4.703125 C 9.375 -4.703125 9.695312 -4.78125 10.125 -4.9375 Z M 10.125 -4.9375" transform="translate(250.434 268.382)"/></g></g></g><g fill="#FFF"><g><g><path d="M 8.5 -8.359375 L 4.96875 -3.1875 L 4.96875 0 L 2.75 0 L 2.75 -3.203125 L -0.765625 -8.359375 L 1.71875 -8.359375 L 3.84375 -5.015625 L 5.984375 -8.359375 Z M 8.5 -8.359375" transform="translate(113.39 292.492)"/></g></g></g><g fill="#FFF"><g><g><path d="M 4.734375 0.109375 C 3.878906 0.109375 3.132812 -0.0625 2.5 -0.40625 C 1.863281 -0.757812 1.375 -1.257812 1.03125 -1.90625 C 0.695312 -2.5625 0.53125 -3.320312 0.53125 -4.1875 C 0.53125 -5.050781 0.703125 -5.804688 1.046875 -6.453125 C 1.390625 -7.097656 1.875 -7.59375 2.5 -7.9375 C 3.132812 -8.28125 3.878906 -8.453125 4.734375 -8.453125 C 5.585938 -8.453125 6.328125 -8.28125 6.953125 -7.9375 C 7.578125 -7.59375 8.054688 -7.097656 8.390625 -6.453125 C 8.734375 -5.804688 8.90625 -5.050781 8.90625 -4.1875 C 8.90625 -3.320312 8.734375 -2.5625 8.390625 -1.90625 C 8.054688 -1.257812 7.578125 -0.757812 6.953125 -0.40625 C 6.328125 -0.0625 5.585938 0.109375 4.734375 0.109375 Z M 4.734375 -1.578125 C 5.359375 -1.578125 5.847656 -1.796875 6.203125 -2.234375 C 6.554688 -2.679688 6.734375 -3.332031 6.734375 -4.1875 C 6.734375 -5.03125 6.554688 -5.671875 6.203125 -6.109375 C 5.847656 -6.554688 5.359375 -6.78125 4.734375 -6.78125 C 4.109375 -6.78125 3.617188 -6.5625 3.265625 -6.125 C 2.910156 -5.6875 2.734375 -5.039062 2.734375 -4.1875 C 2.734375 -3.320312 2.910156 -2.671875 3.265625 -2.234375 C 3.617188 -1.796875 4.109375 -1.578125 4.734375 -1.578125 Z M 4.734375 -1.578125" transform="translate(123.178 292.492)"/></g></g></g><g fill="#FFF"><g><g><path d="M 4.421875 0.109375 C 3.203125 0.109375 2.28125 -0.195312 1.65625 -0.8125 C 1.03125 -1.425781 0.71875 -2.328125 0.71875 -3.515625 L 0.71875 -8.359375 L 2.859375 -8.359375 L 2.859375 -3.4375 C 2.859375 -2.832031 2.992188 -2.367188 3.265625 -2.046875 C 3.535156 -1.734375 3.921875 -1.578125 4.421875 -1.578125 C 4.910156 -1.578125 5.289062 -1.738281 5.5625 -2.0625 C 5.832031 -2.382812 5.96875 -2.84375 5.96875 -3.4375 L 5.96875 -8.359375 L 8.125 -8.359375 L 8.125 -3.515625 C 8.125 -2.347656 7.804688 -1.453125 7.171875 -0.828125 C 6.535156 -0.203125 5.617188 0.109375 4.421875 0.109375 Z M 4.421875 0.109375" transform="translate(134.7 292.492)"/></g></g></g><g fill="#FFF"><g><g><path d="M 8.015625 0 L 5.671875 0 L 4.59375 -2.78125 C 4.46875 -3.09375 4.175781 -3.25 3.71875 -3.25 L 2.921875 -3.25 L 2.921875 0 L 0.75 0 L 0.75 -8.359375 L 4.640625 -8.359375 C 5.648438 -8.359375 6.40625 -8.140625 6.90625 -7.703125 C 7.414062 -7.265625 7.671875 -6.644531 7.671875 -5.84375 C 7.671875 -5.28125 7.519531 -4.789062 7.21875 -4.375 C 6.914062 -3.96875 6.492188 -3.679688 5.953125 -3.515625 C 6.179688 -3.460938 6.390625 -3.347656 6.578125 -3.171875 C 6.765625 -3.003906 6.914062 -2.773438 7.03125 -2.484375 Z M 4.28125 -4.890625 C 4.75 -4.890625 5.085938 -4.960938 5.296875 -5.109375 C 5.515625 -5.253906 5.625 -5.476562 5.625 -5.78125 C 5.625 -6.101562 5.519531 -6.332031 5.3125 -6.46875 C 5.101562 -6.613281 4.757812 -6.6875 4.28125 -6.6875 L 2.890625 -6.6875 L 2.890625 -4.890625 Z M 4.28125 -4.890625" transform="translate(145.602 292.492)"/></g></g></g><g fill="#FFF"><g><g><path d="M 0.75 -8.359375 L 4.171875 -8.359375 C 5.085938 -8.359375 5.878906 -8.191406 6.546875 -7.859375 C 7.222656 -7.523438 7.738281 -7.046875 8.09375 -6.421875 C 8.445312 -5.796875 8.625 -5.050781 8.625 -4.1875 C 8.625 -3.320312 8.445312 -2.570312 8.09375 -1.9375 C 7.738281 -1.3125 7.226562 -0.832031 6.5625 -0.5 C 5.894531 -0.164062 5.097656 0 4.171875 0 L 0.75 0 Z M 4.015625 -1.765625 C 4.828125 -1.765625 5.429688 -1.960938 5.828125 -2.359375 C 6.234375 -2.765625 6.4375 -3.375 6.4375 -4.1875 C 6.4375 -5.789062 5.628906 -6.59375 4.015625 -6.59375 L 2.953125 -6.59375 L 2.953125 -1.765625 Z M 4.015625 -1.765625" transform="translate(161.546 292.492)"/></g></g></g><g fill="#FFF"><g><g><path d="M 7.125 0 L 6.390625 -1.71875 L 2.671875 -1.71875 L 1.9375 0 L -0.265625 0 L 3.640625 -8.359375 L 5.375 -8.359375 L 9.296875 0 Z M 3.390625 -3.375 L 5.671875 -3.375 L 4.53125 -6.015625 Z M 3.390625 -3.375" transform="translate(172.788 292.492)"/></g></g></g><g fill="#FFF"><g><g><path d="M 0.75 0 L 0.75 -8.359375 L 2.953125 -8.359375 L 2.953125 0 Z M 0.75 0" transform="translate(183.889 292.492)"/></g></g></g><g fill="#FFF"><g><g><path d="M 0.75 0 L 0.75 -8.359375 L 2.953125 -8.359375 L 2.953125 -1.78125 L 6.484375 -1.78125 L 6.484375 0 Z M 0.75 0" transform="translate(189.68 292.492)"/></g></g></g><g fill="#FFF"><g><g><path d="M 8.5 -8.359375 L 4.96875 -3.1875 L 4.96875 0 L 2.75 0 L 2.75 -3.203125 L -0.765625 -8.359375 L 1.71875 -8.359375 L 3.84375 -5.015625 L 5.984375 -8.359375 Z M 8.5 -8.359375" transform="translate(198.555 292.492)"/></g></g></g><g fill="#FFF"><g><g><path d="M 0.75 0 L 0.75 -8.359375 L 6.71875 -8.359375 L 6.71875 -6.671875 L 2.890625 -6.671875 L 2.890625 -5.09375 L 6.46875 -5.09375 L 6.46875 -3.40625 L 2.890625 -3.40625 L 2.890625 -1.6875 L 6.71875 -1.6875 L 6.71875 0 Z M 0.75 0" transform="translate(213.831 292.492)"/></g></g></g><g fill="#FFF"><g><g><path d="M 6.859375 -8.359375 L 9.078125 -8.359375 L 5.28125 0 L 3.53125 0 L -0.265625 -8.359375 L 2.015625 -8.359375 L 4.421875 -2.75 Z M 6.859375 -8.359375" transform="translate(222.998 292.492)"/></g></g></g><g fill="#FFF"><g><g><path d="M 0.75 0 L 0.75 -8.359375 L 6.71875 -8.359375 L 6.71875 -6.671875 L 2.890625 -6.671875 L 2.890625 -5.09375 L 6.46875 -5.09375 L 6.46875 -3.40625 L 2.890625 -3.40625 L 2.890625 -1.6875 L 6.71875 -1.6875 L 6.71875 0 Z M 0.75 0" transform="translate(233.888 292.492)"/></g></g></g><g fill="#FFF"><g><g><path d="M 6.15625 -8.359375 L 8.21875 -8.359375 L 8.21875 0 L 6.59375 0 L 2.796875 -4.734375 L 2.796875 0 L 0.75 0 L 0.75 -8.359375 L 2.359375 -8.359375 L 6.15625 -3.640625 Z M 6.15625 -8.359375" transform="translate(243.055 292.492)"/></g></g></g><g fill="#FFF"><g><g><path d="M 2.625 0 L 2.625 -6.578125 L 0.140625 -6.578125 L 0.140625 -8.359375 L 7.34375 -8.359375 L 7.34375 -6.578125 L 4.859375 -6.578125 L 4.859375 0 Z M 2.625 0" transform="translate(254.121 292.492)"/></g></g></g><g fill="#FFF"><g><g><path d="M 2.625 0 L 2.625 -6.578125 L 0.140625 -6.578125 L 0.140625 -8.359375 L 7.34375 -8.359375 L 7.34375 -6.578125 L 4.859375 -6.578125 L 4.859375 0 Z M 2.625 0" transform="translate(152.929 308.242)"/></g></g></g><g fill="#FFF"><g><g><path d="M 8.015625 0 L 5.671875 0 L 4.59375 -2.78125 C 4.46875 -3.09375 4.175781 -3.25 3.71875 -3.25 L 2.921875 -3.25 L 2.921875 0 L 0.75 0 L 0.75 -8.359375 L 4.640625 -8.359375 C 5.648438 -8.359375 6.40625 -8.140625 6.90625 -7.703125 C 7.414062 -7.265625 7.671875 -6.644531 7.671875 -5.84375 C 7.671875 -5.28125 7.519531 -4.789062 7.21875 -4.375 C 6.914062 -3.96875 6.492188 -3.679688 5.953125 -3.515625 C 6.179688 -3.460938 6.390625 -3.347656 6.578125 -3.171875 C 6.765625 -3.003906 6.914062 -2.773438 7.03125 -2.484375 Z M 4.28125 -4.890625 C 4.75 -4.890625 5.085938 -4.960938 5.296875 -5.109375 C 5.515625 -5.253906 5.625 -5.476562 5.625 -5.78125 C 5.625 -6.101562 5.519531 -6.332031 5.3125 -6.46875 C 5.101562 -6.613281 4.757812 -6.6875 4.28125 -6.6875 L 2.890625 -6.6875 L 2.890625 -4.890625 Z M 4.28125 -4.890625" transform="translate(162.494 308.242)"/></g></g></g><g fill="#FFF"><g><g><path d="M 7.125 0 L 6.390625 -1.71875 L 2.671875 -1.71875 L 1.9375 0 L -0.265625 0 L 3.640625 -8.359375 L 5.375 -8.359375 L 9.296875 0 Z M 3.390625 -3.375 L 5.671875 -3.375 L 4.53125 -6.015625 Z M 3.390625 -3.375" transform="translate(172.95 308.242)"/></g></g></g><g fill="#FFF"><g><g><path d="M 4.8125 0.109375 C 3.945312 0.109375 3.191406 -0.0664062 2.546875 -0.421875 C 1.898438 -0.785156 1.398438 -1.289062 1.046875 -1.9375 C 0.703125 -2.582031 0.53125 -3.332031 0.53125 -4.1875 C 0.53125 -5.03125 0.703125 -5.773438 1.046875 -6.421875 C 1.398438 -7.066406 1.898438 -7.566406 2.546875 -7.921875 C 3.191406 -8.273438 3.945312 -8.453125 4.8125 -8.453125 C 5.351562 -8.453125 5.878906 -8.367188 6.390625 -8.203125 C 6.910156 -8.046875 7.328125 -7.828125 7.640625 -7.546875 L 6.96875 -5.984375 C 6.289062 -6.472656 5.585938 -6.71875 4.859375 -6.71875 C 4.179688 -6.71875 3.660156 -6.503906 3.296875 -6.078125 C 2.941406 -5.648438 2.765625 -5.019531 2.765625 -4.1875 C 2.765625 -3.34375 2.941406 -2.703125 3.296875 -2.265625 C 3.660156 -1.835938 4.179688 -1.625 4.859375 -1.625 C 5.585938 -1.625 6.289062 -1.875 6.96875 -2.375 L 7.640625 -0.8125 C 7.328125 -0.53125 6.910156 -0.304688 6.390625 -0.140625 C 5.878906 0.0234375 5.351562 0.109375 4.8125 0.109375 Z M 4.8125 0.109375" transform="translate(184.051 308.242)"/></g></g></g><g fill="#FFF"><g><g><path d="M 8.921875 0 L 6.296875 0 L 2.953125 -3.796875 L 2.953125 0 L 0.75 0 L 0.75 -8.359375 L 2.953125 -8.359375 L 2.953125 -4.765625 L 6.203125 -8.359375 L 8.796875 -8.359375 L 5.09375 -4.390625 Z M 8.921875 0" transform="translate(194.168 308.242)"/></g></g></g><g fill="#FFF"><g><g><path d="M 0.75 0 L 0.75 -8.359375 L 6.71875 -8.359375 L 6.71875 -6.671875 L 2.890625 -6.671875 L 2.890625 -5.09375 L 6.46875 -5.09375 L 6.46875 -3.40625 L 2.890625 -3.40625 L 2.890625 -1.6875 L 6.71875 -1.6875 L 6.71875 0 Z M 0.75 0" transform="translate(204.53 308.242)"/></g></g></g><g fill="#FFF"><g><g><path d="M 8.015625 0 L 5.671875 0 L 4.59375 -2.78125 C 4.46875 -3.09375 4.175781 -3.25 3.71875 -3.25 L 2.921875 -3.25 L 2.921875 0 L 0.75 0 L 0.75 -8.359375 L 4.640625 -8.359375 C 5.648438 -8.359375 6.40625 -8.140625 6.90625 -7.703125 C 7.414062 -7.265625 7.671875 -6.644531 7.671875 -5.84375 C 7.671875 -5.28125 7.519531 -4.789062 7.21875 -4.375 C 6.914062 -3.96875 6.492188 -3.679688 5.953125 -3.515625 C 6.179688 -3.460938 6.390625 -3.347656 6.578125 -3.171875 C 6.765625 -3.003906 6.914062 -2.773438 7.03125 -2.484375 Z M 4.28125 -4.890625 C 4.75 -4.890625 5.085938 -4.960938 5.296875 -5.109375 C 5.515625 -5.253906 5.625 -5.476562 5.625 -5.78125 C 5.625 -6.101562 5.519531 -6.332031 5.3125 -6.46875 C 5.101562 -6.613281 4.757812 -6.6875 4.28125 -6.6875 L 2.890625 -6.6875 L 2.890625 -4.890625 Z M 4.28125 -4.890625" transform="translate(213.698 308.242)"/></g></g></g></svg>